<svg
  xmlns="http://www.w3.org/2000/svg"
  width="24"
  height="24"
  viewBox="0 0 24 24"
  fill="none"
  stroke="rgba(255, 255, 255, 0.8)"
  stroke-width="2"
  stroke-linecap="round"
  stroke-linejoin="round"
  class="feather feather-message-circle"
>
  <path
    d="M21 11.5a8.38 8.38 0 0 1-.95 4.39A9 9 0 0 1 12 21a9 9 0 0 1-8.05-5.11A8.38 8.38 0 0 1 3 11.5a9 9 0 0 1 9-9 9 9 0 0 1 9 9z"
  ></path>
  <path
    d="M12 22a10 10 0 0 0 10-10c0-5.52-4.48-10-10-10-5.52 0-10 4.48-10 10 0 1.95.56 3.76 1.54 5.38L2 22l5-1.55a9.98 9.98 0 0 0 5.46 1.55z"
  ></path>
  <path
    d="M16.5 12a.5.5 0 0 1 .5.5v.5a.5.5 0 0 1-1 0v-.5a.5.5 0 0 1 .5-.5z"
  ></path>
  <path
    d="M12.5 12a.5.5 0 0 1 .5.5v.5a.5.5 0 0 1-1 0v-.5a.5.5 0 0 1 .5-.5z"
  ></path>
  <path
    d="M8.5 12a.5.5 0 0 1 .5.5v.5a.5.5 0 0 1-1 0v-.5a.5.5 0 0 1 .5-.5z"
  ></path>
</svg>
